<svg xmlns="http://www.w3.org/2000/svg" width="2221.763" height="1387.965" viewBox="0 0 2221.763 1387.965">
  <defs>
    <style>
      .cls-1 {
        opacity: 0.577;
      }

      .cls-2, .cls-3, .cls-4 {
        fill: none;
        stroke: #fafafc;
        stroke-miterlimit: 10;
      }

      .cls-3 {
        stroke-width: 0.5px;
      }

      .cls-4 {
        stroke-width: 0.25px;
      }
    </style>
  </defs>
  <g id="Group_3" data-name="Group 3" class="cls-1" transform="translate(48.956 102.53)">
    <path id="Path_1" data-name="Path 1" class="cls-2" d="M1572.394-19.859c18.788,108.987.344,221.171-29.121,327.768s-69.9,210.035-96.408,317.405a1274.437,1274.437,0,0,0,2.351,617.39"/>
    <path id="Path_2" data-name="Path 2" class="cls-3" d="M16.884-72.171c168.892,3.709,324.151,116.023,405.638,264S518.57,517.785,491.3,684.5c-9.708,59.362-24.46,118.058-28.653,178.062s3.038,122.835,34.267,174.243c52.2,85.933,172.793,122.14,263.7,79.173"/>
    <path id="Path_3" data-name="Path 3" class="cls-3" d="M889.318,1175.055c134.017-8.786,253.163-88.106,352.952-178s188.307-193.465,299.574-268.682c101.538-68.64,218.048-110.966,329.964-160.93S2095.058,456.9,2172.613,362"/>
    <path id="Path_4" data-name="Path 4" class="cls-4" d="M-47.87,942.887C-57.445,778.245,8.132,610.7,126.924,496.3c86.844-83.631,197.937-138.046,287.983-218.219,103.052-91.752,175.914-216.87,204.86-351.778"/>
    <path id="Path_5" data-name="Path 5" class="cls-4" d="M524.212-49.182C529.2,8.976,495.5,63,459.634,109.053A1123.693,1123.693,0,0,1,265.375,303.682c-59.5,46.512-123.725,87.055-180.145,137.253S-20.5,553.091-39.121,626.277"/>
    <path id="Path_6" data-name="Path 6" class="cls-4" d="M223.986,1160.264c-66.417-47.675-104.659-127.09-118.455-207.674S99.822,789.4,110.239,708.308c9-70.1,19.667-141.866,4.118-210.807S50.287,361.92-18.946,347.726"/>
    <path id="Path_7" data-name="Path 7" class="cls-4" d="M-33.315,1036.663C75.845,811.368,281.057,644.991,503.586,530.3s464.97-184.077,701.96-264.757S1679.5,90.013,1874.745-66.682"/>
    <path id="Path_8" data-name="Path 8" class="cls-4" d="M1382.483-98.971c-93.635-12.442-191.482,9.813-270.524,61.529S973.34,95.021,947.243,185.8c-40.613,141.276-.821,291.723-.828,438.72-.013,258.327-133.021,513.117-344.963,660.811"/>
    <path id="Path_9" data-name="Path 9" class="cls-4" d="M420.563,1209.38c99.954-177.823,281.956-298.085,382.642-475.494,105.08-185.151,109.211-408.68,110.633-621.568q.406-60.987.814-121.974"/>
    <path id="Path_10" data-name="Path 10" class="cls-4" d="M2020.785,219.888,1213.673,613.714C1086.909,675.568,957.728,739.1,857.2,838.043S688,1079.335,712.838,1218.179"/>
  </g>
</svg>
